<svg class="svg-icon" style="width: 1em; height: 1em;vertical-align: middle;fill: currentColor;overflow: hidden;" viewBox="0 0 1024 1024" version="1.1" xmlns="http://www.w3.org/2000/svg"><path d="M511.8 512m-399.6 0a399.6 399.6 0 1 0 799.2 0 399.6 399.6 0 1 0-799.2 0Z" fill="#79909B" /><path d="M511.8 112.4c-17 0-33.6 1-50 3.2 197.2 24.6 349.6 192.8 349.6 396.4S659 884 462 908.4c16.4 2 33 3.2 50 3.2 220.6 0 399.6-178.8 399.6-399.6S732.6 112.4 511.8 112.4z" fill="#547F94" /><path d="M721.8 171.8c51.6 31.8 95.2 75 127.8 126.2l-0.6-0.2c-170.6-48.6-366.4 1.2-486.2 137.8-36.2-29.6-66.6-65-90.2-104.6l0.2-0.2c112.6-117.6 285-173.4 448.6-159.2l0.4 0.2z" fill="#39C6D9" /><path d="M737.4 280.2c37.6 1.6 75 7.4 111.4 17.8l0.6 0.2c-0.2-0.2-0.2-0.4-0.4-0.6-1.8-3-3.8-6-5.8-8.8-2-2.8-4-5.8-6-8.6-0.6-1-1.4-1.8-2-2.8-1.4-2-2.8-3.8-4.2-5.8-0.8-1-1.6-2.2-2.4-3.2-1.4-1.8-2.8-3.6-4.2-5.2-0.8-1-1.6-2.2-2.6-3.2-1.4-1.8-2.8-3.6-4.4-5.2l-2.4-3c-1.6-2-3.4-4-5.2-5.8-0.6-0.6-1.2-1.4-1.8-2l-7.2-7.8-1.6-1.6c-2-2-3.8-4-5.8-5.8l-2.6-2.6c-1.6-1.6-3.2-3.2-5-4.8-1-1-2-1.8-3-2.8-1.6-1.6-3.2-3-5-4.4-1-0.8-2-1.8-3-2.6-1.8-1.6-3.6-3-5.4-4.6-1-0.8-1.8-1.6-2.8-2.4-2.4-2-4.8-3.8-7.2-5.8-0.4-0.2-0.8-0.6-1-0.8-2.8-2.2-5.6-4.4-8.4-6.4-0.8-0.6-1.6-1.2-2.6-1.8-2-1.4-4-3-6-4.4-1-0.8-2.2-1.4-3.2-2.2-1.8-1.2-3.8-2.6-5.6-3.8-1.2-0.8-2.2-1.4-3.4-2.2-1.8-1.2-3.8-2.4-5.8-3.6-0.8-0.4-1.4-1-2.2-1.4h-0.6c-33-2.8-66.4-2.8-99.4 0 45.8 27.6 85.4 64.6 116.2 108z" fill="#12A5C9" /><path d="M229.4 229.4c72.4-72.4 172.2-117 282.6-117 77 0 148.8 21.8 209.8 59.4h-0.6c-163.6-14.2-335.8 41.6-448.6 159.2l-0.2 0.2c-18.8-31.4-33.2-65.2-42.8-100.6l-0.2-1.2z" fill="#465A63" /><path d="M721 171.8h0.6c-0.6-0.4-1-0.6-1.6-1-2.6-1.6-5.2-3.2-7.8-4.6l-5.4-3c-2-1.2-4-2.2-6-3.4-1.6-0.8-3.2-1.8-4.8-2.6l-6-3c-1.6-0.8-3-1.6-4.6-2.2-3.2-1.6-6.4-3-9.6-4.4-1.6-0.8-3.4-1.4-5-2.2-2-0.8-4-1.8-6-2.6-1.8-0.8-3.4-1.4-5.2-2.2-2.6-1-5-2-7.6-3-2.2-0.8-4.6-1.6-6.8-2.4-2.2-0.8-4.4-1.6-6.6-2.2l-5.4-1.8c-2.2-0.6-4.2-1.4-6.4-2-1.8-0.6-3.4-1-5.2-1.6-3.4-1-6.8-1.8-10.4-2.8-1.8-0.4-3.6-0.8-5.4-1.4-2.2-0.6-4.2-1-6.4-1.4-1.8-0.4-3.8-0.8-5.6-1.2-2.6-0.6-5.2-1-7.8-1.6-2.6-0.4-5-1-7.6-1.4l-7.2-1.2c-2-0.2-3.8-0.6-5.8-0.8-2.2-0.4-4.4-0.6-6.8-0.8-1.8-0.2-3.6-0.4-5.6-0.6-3.6-0.4-7.2-0.6-11-1-1.8-0.2-3.8-0.2-5.6-0.4-2.2-0.2-4.6-0.2-6.8-0.4-2 0-4-0.2-5.8-0.2-2.6 0-5.2-0.2-8-0.2h-4c-4.2 0-8.4 0-12.6 0.2h-0.2l-12 0.6h-1c-8.2 0.6-16.2 1.2-24.2 2.2 58 7.2 112 26.8 159.6 56.2 33.2-2.4 66.6-2.4 99.6 0.4z" fill="#3D4F57" /><path d="M112.4 500.4c1.8-60.6 17.4-120 45.4-173.8l0.2 0.6c43.2 172 184.4 316.6 362.4 352.2-7.6 46-23 90.2-45.4 130.4h-0.2c-158.2-38.8-292.6-160-362.2-308.8l-0.2-0.6z" fill="#39C6D9" /><path d="M408.4 898c-98.8-26.4-187.4-90.6-242.6-186.2-38.4-66.6-55.6-139.8-53.4-211.4l0.4 0.6c69.6 148.8 204 270.2 362.2 308.8h0.2c-17.8 31.8-39.8 61.4-65.8 87.4l-1 0.8z" fill="#465A63" /><path d="M701.6 863.8c-53.4 28.6-112.6 45-173.2 47.6l0.4-0.4c127.4-123.4 182-318 123.8-490 43.6-16.6 89.6-25.2 135.8-25.8v0.2c45.6 156.4 7.8 333.4-86.4 468l-0.4 0.4z" fill="#39C6D9" /><path d="M898 408.6c26.4 98.8 15.2 207.6-40 303.2-38.4 66.6-93.2 118-156.4 152l0.4-0.6c94.2-134.6 132-311.6 86.4-468v-0.2c36.6-0.6 73 3.8 108.6 13.2l1 0.4z" fill="#465A63" /><path d="M908.4 461.8c0-0.6-0.2-1.2-0.2-1.8-0.2-2.2-0.6-4.4-1-6.6-0.2-1.8-0.6-3.6-0.8-5.4-0.2-1-0.4-2-0.4-3-2-12.2-4.8-24.4-8-36.2l-1-0.4c-33.6-8.8-68.2-13.2-102.8-13.2 11.4 37 17.4 76.2 17.4 117 0 24.2-2.2 47.8-6.2 70.6-9.2 99.8-45.6 198.2-103.4 280.6l-0.2 0.4c58.8-31.8 108.8-78 145.2-134 0.6-1 1.4-2 2-3 1.2-1.8 2.2-3.6 3.2-5.2 1.4-2.4 3-4.8 4.4-7.2l1.8-3c1-1.6 1.8-3.2 2.6-4.8 0.6-1.2 1.4-2.4 2-3.6 3.2-5.8 6.2-11.8 9.2-17.8 0.4-1 1-2 1.4-3 1-2 1.8-3.8 2.8-5.8 0.8-1.8 1.6-3.6 2.4-5.6 0.4-1 1-2.2 1.4-3.2 1-2.6 2.2-5.2 3.2-7.8 0.2-0.4 0.2-0.8 0.4-1 17.8-45.4 27.6-94.8 27.6-146.4 0-17.4-1-34.2-3-50.6z" fill="#3D4F57" /><path d="M917.6 439.4v-0.4c-0.4-2.6-1-5.2-1.6-7.8-0.2-1.2-0.6-2.6-0.8-3.8-0.4-1.6-0.6-3.2-1-4.8-0.4-2-1-4.2-1.4-6.2-0.2-0.8-0.4-1.8-0.6-2.6-0.6-2.6-1.2-5-2-7.6 0-0.2-0.2-0.6-0.2-0.8v-0.2c-10.8-40-27.4-77.6-49-112-0.2-0.6-0.6-1.2-1-1.8-33.2-52.4-78.8-97.4-131.6-130 0 0-0.2 0-0.2-0.2a409.72 409.72 0 0 0-110.6-47.4c-1.2-0.4-2.4-0.6-3.8-1-2.2-0.6-4.6-1.2-6.8-1.6-2-0.4-3.8-0.8-5.8-1.4-2-0.4-4-0.8-6-1.4-3.6-0.8-7.2-1.4-11-2.2-1.6-0.2-3.4-0.6-5-0.8-2.6-0.4-5-0.8-7.6-1.2-1.8-0.2-3.6-0.6-5.4-0.8-2.8-0.4-5.4-0.6-8.2-1-1.6-0.2-3.2-0.4-5-0.6-3.6-0.4-7.2-0.6-10.8-1-2-0.2-3.8-0.2-5.8-0.4-2.2-0.2-4.6-0.2-6.8-0.4-2 0-4-0.2-6.2-0.2-2.4 0-4.8 0-7.2-0.2h-4.6c-110 0-213.6 42.8-291.4 120.6-0.6 0.6-1 1.2-1.4 1.8-28.2 28.6-52.4 61.2-71.4 97-0.4 0.6-0.8 1-1 1.6-5.2 10-10 20.2-14.4 30.8v0.2c-0.4 1.2-1 2.2-1.4 3.4-1.2 2.8-2.2 5.4-3.2 8.2v0.2C116.4 392 108.6 422 104 453.2c0 0.4-0.2 1-0.2 1.4-0.4 2.8-0.8 5.4-1 8.2l-0.6 5.4c-0.2 1.2-0.2 2.4-0.4 3.6-1 9.4-1.6 18.8-1.8 28.4v1.4c0 3.4-0.2 7-0.2 10.6 0 227.2 184.8 412 412 412 5.2 0 10.2-0.2 15.4-0.4H529c14.6-0.6 29.2-2 43.6-4.2 0.8-0.2 1.4-0.2 2.2-0.4l3-0.6c3-0.4 5.8-1 8.8-1.6 0.2 0 0.6-0.2 0.8-0.2 22.8-4.2 44.8-10.4 66.2-18.2 18.4-6.8 36.4-14.8 53.6-24 0 0 0.2 0 0.4-0.2 67.2-36.2 123-90.4 161.2-156.8 49.2-84.8 66-182.6 48.8-278.2zM595.2 890c-0.2 0-0.4 0.2-0.8 0.2-2.4 0.6-5 1-7.4 1.6-0.8 0.2-1.8 0.4-2.6 0.6-1.8 0.4-3.8 0.8-5.6 1-2.4 0.4-4.6 0.8-7 1.2-0.4 0-0.8 0.2-1.4 0.2-3.4 0.6-6.8 1-10 1.4 53-58.8 91.6-130.4 112-208.8 22.6-87 21.2-176.2-4.2-258.4 35.6-12.2 72.8-19.4 110.6-21 0.2 0.6 0.4 1.2 0.4 1.6 0.8 2.8 1.4 5.6 2 8.4l1.2 5.4c0.6 2.8 1.2 5.6 1.8 8.6 0.4 1.8 0.8 3.6 1 5.4 0.6 2.8 1.2 5.8 1.6 8.6 0.4 1.8 0.6 3.6 1 5.2 0.4 3 1 5.8 1.4 8.8 0.2 1.8 0.6 3.4 0.8 5.2l1.2 9c0.2 1.6 0.4 3.4 0.6 5.2 0.4 3 0.6 6.2 0.8 9.2 0.2 1.6 0.2 3.2 0.4 5 0.2 3.2 0.4 6.4 0.6 9.4 0 1.6 0.2 3.2 0.2 4.8 0.2 3.2 0.2 6.4 0.4 9.8 0 1.6 0 3 0.2 4.6 0 3.4 0.2 6.6 0.2 10v4.4c0 3.4 0 6.8-0.2 10.4 0 1.4 0 2.6-0.2 4-0.2 3.6-0.2 7.2-0.4 10.6 0 1.2-0.2 2.4-0.2 3.6-0.2 3.6-0.4 7.4-0.8 11 0 1-0.2 2.2-0.2 3.2-0.4 3.8-0.8 7.6-1.2 11.6 0 1-0.2 1.8-0.4 2.8-0.4 4-1 8-1.6 12 0 0.8-0.2 1.4-0.4 2.2-0.6 4.2-1.2 8.4-2 12.6 0 0.4-0.2 1-0.2 1.4l-2.4 13.2c0 0.2 0 0.4-0.2 0.6-14.8 76.2-45.4 151-90.6 216.8-0.4 0.4-0.6 1-1 1.4-18 9.6-37 17.8-56.6 24.6-13 4.4-26.8 8.4-40.8 11.4z m-86.8-392c-46.6-13.4-89.6-35.4-127.2-64 113-120.4 295.6-170.4 460.2-125.2 16 25.8 28.8 53.4 38.4 82.6-2.2-0.4-4.6-1-6.8-1.4-1.8-0.4-3.8-0.6-5.6-1-2.6-0.4-5.2-1-7.8-1.4-3-0.4-5.8-0.8-8.8-1.2-1.6-0.2-3-0.4-4.6-0.6-3.8-0.4-7.8-0.8-11.6-1.2-0.6 0-1-0.2-1.6-0.2-14.8-1.4-29.6-2-44.4-1.8h-0.2-0.2c-48 0.8-95.2 9.8-140.2 26.8l-2.4 1.2c-50.4 19.6-97.2 49-137.2 87.4zM127.8 463.2c4.2-32.8 12.6-65.2 25-95.8 0.8-1.8 1.4-3.4 2.2-5.2 24.4 75.4 67.2 144.4 124.8 201.4 64 63.2 142 106.4 226 125.6-7.2 37-19.8 72.8-37.2 106.4C324.8 756.8 194 644 125 498c0.6-11.8 1.4-23.4 2.8-34.8zM658.6 157.4c-15.4 0.4-30.6 1.2-46 2.6-0.6 0-1 0.2-1.6 0.2-4.8 0.4-9.6 1-14.4 1.6h-0.6c-10.2 1.2-20.4 2.8-30.6 4.6-0.4 0-0.8 0.2-1.2 0.2-4.6 0.8-9.2 1.8-13.8 2.6-0.6 0.2-1 0.2-1.6 0.4-15 3-29.8 6.8-44.4 10.8-0.6 0.2-1.2 0.4-1.6 0.4-4.6 1.4-9 2.6-13.4 4-0.4 0.2-0.6 0.2-1 0.2-4.8 1.6-9.8 3.2-14.6 4.8-10.2 3.6-20.2 7.4-30 11.4l-1.2 0.6c-4.4 1.8-8.8 3.6-13.2 5.6-0.8 0.4-1.8 0.8-2.6 1.2-3.8 1.8-7.8 3.6-11.6 5.4-1 0.6-2.2 1-3.2 1.6-3.6 1.8-7.2 3.4-10.6 5.2l-3.6 1.8c-3.4 1.8-6.8 3.6-10 5.4-1.2 0.6-2.6 1.4-3.8 2-3.2 1.8-6.4 3.6-9.6 5.6-1.2 0.8-2.6 1.4-3.8 2.2-3.2 1.8-6.4 3.8-9.4 5.8-1.2 0.8-2.4 1.6-3.6 2.2-3.2 2-6.2 4-9.4 6-1.2 0.8-2.4 1.6-3.4 2.2-3.2 2.2-6.2 4.2-9.4 6.4-1 0.8-2 1.4-3 2.2l-9.6 7.2-2.4 1.8c-3.6 2.6-7 5.4-10.4 8.2-0.4 0.4-1 0.8-1.4 1-11.4 9.4-22.6 19-33 29.2-4.2-7.6-8-15.4-11.6-23.2 0 0 0-0.2-0.2-0.2l-4.8-10.8-0.6-1.2c-1.6-3.6-3-7.4-4.4-11 0-0.2-0.2-0.2-0.2-0.4l-4.2-11.4c-0.4-1-0.6-2-1-3-1-2.8-1.8-5.4-2.6-8.2-0.4-1.4-0.8-2.8-1.4-4.4-0.4-1.2-0.6-2.4-1-3.6C313.2 165.4 408 124 512 124c55 0 107.2 11.6 154.6 32.2-2.2 0-4.4 0-6.6 0.2-0.4 0.8-1 0.8-1.4 1zM361.6 418.2c-28.4-24.6-53.2-53.4-73.4-85.4l1.2-1.2c2-2 4-4 6.2-6 1.4-1.2 2.6-2.6 4-3.8 2-2 4.2-3.8 6.4-5.8l4.2-3.6c2.2-2 4.4-3.8 6.6-5.6l4.2-3.6c2.2-1.8 4.6-3.6 6.8-5.6 1.4-1.2 2.8-2.2 4.2-3.4l7.2-5.4c1.4-1 2.8-2.2 4.2-3.2 2.4-1.8 5-3.6 7.4-5.4l4.2-3c2.6-1.8 5.2-3.6 7.8-5.2 1.4-0.8 2.8-1.8 4.2-2.6 2.8-1.8 5.4-3.4 8.2-5.2 1.4-0.8 2.6-1.6 4-2.4 2.8-1.8 5.8-3.4 8.6-5 1.2-0.8 2.4-1.4 3.8-2.2 3-1.8 6-3.4 9-5 1.2-0.6 2.4-1.2 3.4-1.8 3.2-1.6 6.4-3.4 9.6-5 1-0.6 2-1 3.2-1.6 3.4-1.6 6.8-3.4 10.2-5 0.8-0.4 1.8-0.8 2.6-1.2 3.6-1.6 7.2-3.4 10.8-5 0.8-0.4 1.4-0.6 2.2-1 3.8-1.6 7.6-3.2 11.6-4.8 0.4-0.2 1-0.4 1.4-0.6 4.2-1.6 8.2-3.2 12.4-4.8 0.2 0 0.4-0.2 0.6-0.2C545.8 190 631 177.2 715.8 184c0.6 0 1 0 1.6 0.2 39.6 24.8 74.4 56.8 102.6 93.8-77.4-16.4-158.6-14-236.6 7.4-86.6 23.8-163 69.6-221.8 132.8z m-138-164.2c0.6 2.2 1.4 4.2 2 6.4 0.8 2.4 1.6 4.6 2.6 6.8 0.8 2 1.4 4 2.2 5.8 1.2 3.4 2.6 6.6 4 9.8 0.4 0.8 0.6 1.8 1 2.6 7.6 17.8 16.2 35.2 26.2 51.8v0.2c24.6 41.2 56 77.6 93 107.8l0.4 0.4c0.6 0.4 1.4 0.8 2 1.2 42.2 34 91 59.8 144.4 75 11.6 47 14.2 95.2 8.2 142.2-160.8-37.6-295.4-170.8-338.6-336 14.8-26.6 32.4-51.4 52.6-74z m518.6 569c1-1.8 2-3.6 3-5.2l0.6-1.2c7.4-13.4 14.2-27.2 20.6-41 0.2-0.6 0.4-1 0.8-1.6 2-4.4 3.8-8.8 5.8-13.2 0-0.2 0.2-0.4 0.2-0.6 4-9.4 7.8-19 11.4-28.8 0.2-0.4 0.2-0.8 0.4-1.2 1.6-4.4 3.2-8.8 4.6-13.2 0.2-0.6 0.4-1.2 0.6-1.6 4.8-14.4 9-29.2 12.8-43.8 0.2-0.6 0.2-1.2 0.4-1.8 1.2-4.6 2.2-9 3.2-13.6 0-0.4 0.2-0.8 0.2-1 1-5 2.2-10 3.2-15 2-10.6 3.8-21 5.2-31.6 0-0.4 0.2-0.8 0.2-1.2 0.6-4.8 1.2-9.4 1.8-14.2 0-1 0.2-1.8 0.2-2.8l1.2-12.6c0-1.2 0.2-2.4 0.2-3.6 0.2-4 0.6-8 0.8-11.8 0-1.4 0.2-2.6 0.2-4 0.2-3.8 0.4-7.6 0.4-11.4v-4.2-11.2-4.2c0-3.8-0.2-7.4-0.2-11.2 0-1.4 0-2.8-0.2-4.2-0.2-3.8-0.4-7.4-0.6-11.2 0-1.4-0.2-2.6-0.2-4-0.2-3.8-0.6-7.6-1-11.6-0.2-1.2-0.2-2.4-0.4-3.6-0.4-4-0.8-8-1.4-12.2-0.2-1-0.2-1.8-0.4-2.8-0.6-4.6-1.2-9-2-13.6 0-0.4-0.2-0.8-0.2-1.4-2.4-14.6-5.2-29-8.8-43.2 8.6 0.2 17.2 0.8 25.8 1.4h0.6c3.8 0.4 7.6 0.8 11.2 1.2 0.6 0 1 0.2 1.6 0.2 3.8 0.4 7.6 1 11.2 1.6 0.4 0 0.6 0 1 0.2 4 0.6 7.8 1.4 11.8 2 1.2 0.2 2.4 0.4 3.4 0.8 2.6 0.6 5.2 1 7.8 1.6l4.8 1.2c1.2 0.2 2.4 0.6 3.6 0.8 0.2 0.6 0.4 1.4 0.4 2 0.4 1.8 1 3.8 1.4 5.6 0.4 1.8 0.8 3.4 1.2 5.2 0.2 1 0.4 2.2 0.6 3.2 5 24.8 7.8 50.6 7.8 77 0 126.8-61.8 240-156.8 310.6zM127.2 555.4c33.2 56.6 75.8 108 125 150.8 60.8 52.8 131 91 203.4 111.6-14.4 23.6-31.6 45.8-51 66.2-148-42.8-259.8-171.6-277.4-328.6z m305.2 335.4c20.2-22.6 37.8-47.2 52.4-73.2 0.4-0.4 0.8-1 1-1.6 23.4-42 39.2-87.2 46.8-134.4 0.2-1 0.2-2 0.2-3 8.4-53.4 6.2-108.8-7.2-162.6 35-33.6 75.4-60 119-78.2 47.8 158.2-0.2 341.2-121.6 461.2-3.8 0.2-7.4 0.2-11.2 0.2-27.2 0-53.8-3-79.4-8.4z" fill="#17171D" /><path d="M334.6 223c-4.2 0-8.4-2.2-10.8-6.2-3.6-6-1.6-13.6 4.4-17.2 25.2-14.8 52.2-26.6 80.2-35 6.6-2 13.6 1.8 15.6 8.4 2 6.6-1.8 13.6-8.4 15.6-26 7.8-51.2 18.8-74.6 32.6-2 1.4-4.2 1.8-6.4 1.8zM287.2 256.6c-3.6 0-7-1.6-9.6-4.4-4.4-5.2-3.8-13.2 1.6-17.6 6.4-5.4 12.8-10.4 19.6-15.4 5.6-4 13.4-2.8 17.4 2.8 4 5.6 2.8 13.4-2.8 17.4-6.2 4.6-12.4 9.4-18.2 14.2-2.4 2-5.2 3-8 3z" fill="#ECEFF1" /></svg>